<svg width="28" height="28" viewBox="0 0 28 28" fill="none" xmlns="http://www.w3.org/2000/svg">
<path d="M26.2456 28C11.3153 28.0211 -0.0159558 16.5541 1.68655e-05 1.75439C1.68655e-05 0.787894 0.783519 0 1.75002 0H6.36889C7.23614 0 7.97288 0.637226 8.10023 1.49508C8.40544 3.5511 9.00405 5.55269 9.87785 7.43873L10.0577 7.82688C10.3077 8.36659 10.1382 9.00785 9.65418 9.35353C8.22377 10.375 7.67711 12.4312 8.79147 14.0356C10.1899 16.049 11.9526 17.8113 13.9655 19.2091C15.5698 20.3231 17.6256 19.7765 18.6471 18.3464C18.9931 17.8621 19.6347 17.6925 20.1747 17.9427L20.5611 18.1216C22.4472 18.9954 24.449 19.594 26.5052 19.8992C27.3631 20.0265 28 20.7632 28 21.6305V26.25C28 27.2165 27.2146 28 26.2481 28L26.2456 28Z" fill="#000000"/>
</svg>
