<?xml version="1.0" encoding="utf-8"?>
<!-- Generator: Adobe Illustrator 24.1.0, SVG Export Plug-In . SVG Version: 6.00 Build 0)  -->
<svg version="1.1" id="Capa_1" xmlns="http://www.w3.org/2000/svg" xmlns:xlink="http://www.w3.org/1999/xlink" x="0px" y="0px"
	 viewBox="0 0 67 67" style="enable-background:new 0 0 67 67;" xml:space="preserve">
<style type="text/css">
	.st0{fill:#FFD02C;}
	.st1{display:none;fill:#ED6A5A;}
	.st2{fill:#ED6A5A;}
</style>
<circle class="st0" cx="33.5" cy="33.5" r="33.5"/>
<path id="kite" class="st1" d="M55,45.3l-0.2-0.2l2.8-2.8l-3-3l-2.8,2.8l-2.2-2.2c0-0.4,0-1.1,0-1.5L42,9.2C41.5,7,39.6,5.8,37.5,6
	L17,7.1c-2.2,0.2-3.9,2-4.1,4.1l-1.3,20.7c-0.2,2.2,1.3,4.1,3.2,4.5l29.4,7.4c0.2,0,0.4,0,0.9,0c0.4,0,1.1-0.2,1.5-0.2l1.8,1.8
	L45.6,48l3,3l2.8-2.8l0.2,0.2c2,2,2,4.7,0,6.7c-2,2-4.7,2-6.7,0c-4.7-4.7-12.3-4.7-17.1,0L23.9,59c-0.9,0.9-0.9,2.2,0,3
	c0.4,0.4,1.1,0.7,1.5,0.7s1.1-0.2,1.5-0.7l3.9-3.9c3-3,8-3,11,0c3.4,3.4,9.2,3.4,12.8,0C58,54.8,58.5,48.9,55,45.3z"/>
<path id="kite_1_" class="st1" d="M52.1,43.3l-0.2-0.2l2.5-2.5l-2.7-2.7l-2.5,2.5l-2-2c0-0.4,0-1,0-1.4l-6.9-26.5
	c-0.4-2-2.2-3.1-4.1-2.9l-18.6,1c-2,0.2-3.5,1.8-3.7,3.7l-1.2,18.8c-0.2,2,1.2,3.7,2.9,4.1l26.7,6.7c0.2,0,0.4,0,0.8,0
	c0.4,0,1-0.2,1.4-0.2l1.6,1.6l-2.5,2.5l2.7,2.7l2.5-2.5l0.2,0.2c1.8,1.8,1.8,4.3,0,6.1s-4.3,1.8-6.1,0c-4.3-4.3-11.2-4.3-15.5,0
	l-3.5,3.5c-0.8,0.8-0.8,2,0,2.7c0.4,0.4,1,0.6,1.4,0.6s1-0.2,1.4-0.6l3.5-3.5c2.7-2.7,7.3-2.7,10,0c3.1,3.1,8.4,3.1,11.6,0
	C54.9,51.9,55.3,46.6,52.1,43.3z M43.3,38L26.5,21.1l-9.6,9.6l1-18.2l8.4,8.4l10.2-10.2L43.3,38z"/>
<path id="kite_2_" class="st2" d="M55,45.3l-0.2-0.2l2.8-2.8l-3-3L51.7,42l-2.3-2.3c0-0.5,0-1.1,0-1.6L41.7,8.3
	C41.3,6,39.2,4.8,37.1,5l-21,1.1c-2.3,0.2-3.9,2-4.2,4.2l-1.4,21.2c-0.2,2.3,1.4,4.2,3.3,4.6L44,43.7c0.2,0,0.5,0,0.9,0
	c0.5,0,1.1-0.2,1.6-0.2l1.8,1.8l-2.8,2.8l3,3l2.8-2.8l0.2,0.2c2,2,2,4.8,0,6.9c-2,2-4.8,2-6.9,0c-4.8-4.8-12.6-4.8-17.5,0l-3.9,3.9
	c-0.9,0.9-0.9,2.3,0,3c0.5,0.5,1.1,0.7,1.6,0.7c0.5,0,1.1-0.2,1.6-0.7l3.9-3.9c3-3,8.2-3,11.3,0c3.5,3.5,9.5,3.5,13.1,0
	C58.2,55,58.6,49,55,45.3z M45.1,39.3L26.1,20.3L15.3,31.1l1.1-20.5l9.5,9.5L37.4,8.5L45.1,39.3z"/>
</svg>
