<?xml version="1.0" encoding="utf-8"?>
<!-- Generator: Adobe Illustrator 24.1.0, SVG Export Plug-In . SVG Version: 6.00 Build 0)  -->
<svg version="1.1" id="Capa_1" xmlns="http://www.w3.org/2000/svg" xmlns:xlink="http://www.w3.org/1999/xlink" x="0px" y="0px"
	 viewBox="0 0 67 67" style="enable-background:new 0 0 67 67;" xml:space="preserve">
<style type="text/css">
	.st0{fill:#FFFFFF;}
	.st1{fill:#FFDE32;}
</style>
<circle class="st0" cx="33.5" cy="33.5" r="33.5"/>
<path id="kite" class="st1" d="M52.1,43.3l-0.2-0.2l2.5-2.5l-2.7-2.7l-2.5,2.5l-2-2c0-0.4,0-1,0-1.4l-6.9-26.5
	c-0.4-2-2.2-3.1-4.1-2.9l-18.6,1c-2,0.2-3.5,1.8-3.7,3.7l-1.2,18.8c-0.2,2,1.2,3.7,2.9,4.1l26.7,6.7c0.2,0,0.4,0,0.8,0
	c0.4,0,1-0.2,1.4-0.2l1.6,1.6l-2.5,2.5l2.7,2.7l2.5-2.5l0.2,0.2c1.8,1.8,1.8,4.3,0,6.1c-1.8,1.8-4.3,1.8-6.1,0
	c-4.3-4.3-11.2-4.3-15.5,0l-3.5,3.5c-0.8,0.8-0.8,2,0,2.7c0.4,0.4,1,0.6,1.4,0.6c0.4,0,1-0.2,1.4-0.6l3.5-3.5c2.7-2.7,7.3-2.7,10,0
	c3.1,3.1,8.4,3.1,11.6,0C54.9,51.9,55.3,46.6,52.1,43.3z M43.3,38L26.5,21.1l-9.6,9.6l1-18.2l8.4,8.4l10.2-10.2L43.3,38z"/>
</svg>
