<svg width="28" height="28" viewBox="0 0 28 28" fill="none" xmlns="http://www.w3.org/2000/svg">
<g clip-path="url(#clip0)">
<path fill-rule="evenodd" clip-rule="evenodd" d="M23.9034 4.0953C21.2511 1.43991 17.7238 -0.0231009 13.966 -0.0246582C6.22269 -0.0246582 -0.0792439 6.27709 -0.0823586 14.0225C-0.0833968 16.4984 0.563407 18.9154 1.79282 21.0458L-0.200195 28.3253L7.24705 26.3718C9.29907 27.4911 11.6093 28.081 13.9603 28.0817H13.9662C21.7086 28.0817 28.0112 21.7794 28.0142 14.0337C28.0157 10.2799 26.5558 6.75051 23.9034 4.0953ZM13.966 25.7092H13.9611C11.866 25.7084 9.81125 25.1453 8.01827 24.0817L7.59208 23.8285L3.17277 24.9878L4.35235 20.6791L4.07463 20.2374C2.90578 18.3783 2.28856 16.2295 2.2896 14.0233C2.29203 7.58558 7.53014 2.34799 13.9707 2.34799C17.0894 2.34903 20.0212 3.56512 22.2256 5.77217C24.4301 7.97923 25.6434 10.9129 25.6424 14.0328C25.6396 20.4711 20.4019 25.7092 13.966 25.7092ZM20.3707 16.9642C20.0198 16.7884 18.2939 15.9395 17.9721 15.8222C17.6506 15.7051 17.4163 15.6467 17.1825 15.998C16.9484 16.3493 16.2758 17.14 16.071 17.3741C15.8661 17.6084 15.6616 17.6379 15.3105 17.462C14.9594 17.2864 13.8284 16.9156 12.4876 15.7198C11.4442 14.789 10.7398 13.6395 10.5349 13.2883C10.3304 12.9367 10.5332 12.765 10.6889 12.5719C11.0689 12.1001 11.4494 11.6053 11.5663 11.3712C11.6835 11.1369 11.6248 10.9319 11.5369 10.7563C11.4494 10.5806 10.7474 8.85288 10.4549 8.14984C10.1698 7.46566 9.88064 7.55807 9.66504 7.54734C9.46051 7.53713 9.2264 7.53505 8.99228 7.53505C8.75834 7.53505 8.37801 7.62278 8.05616 7.97439C7.73449 8.32582 6.82779 9.1749 6.82779 10.9027C6.82779 12.6304 8.08558 14.2995 8.26104 14.5338C8.43649 14.7681 10.7363 18.3136 14.2574 19.8338C15.0949 20.1958 15.7486 20.4116 16.2585 20.5734C17.0995 20.8405 17.8645 20.8028 18.4694 20.7125C19.1439 20.6116 20.546 19.8632 20.8388 19.0434C21.1312 18.2234 21.1312 17.5207 21.0433 17.3741C20.9557 17.2278 20.7216 17.14 20.3707 16.9642Z" fill="#000000"/>
</g>
<defs>
<clipPath id="clip0">
<rect width="28" height="28" fill="white"/>
</clipPath>
</defs>
</svg>
