<svg width="241" height="67" viewBox="0 0 241 67" fill="none" xmlns="http://www.w3.org/2000/svg">
<path d="M134.444 45L127.712 21.24H136.748L139.52 38.412L142.868 21.24H150.068L153.596 38.304L156.296 21.24H165.008L158.24 45H149.348L147.476 36.072L146.54 29.988H146.432L145.496 36.072L143.66 45H134.444ZM170.317 25.848C168.685 25.848 167.521 25.584 166.825 25.056C166.153 24.528 165.817 23.64 165.817 22.392C165.817 21.12 166.153 20.232 166.825 19.728C167.521 19.2 168.685 18.936 170.317 18.936C171.949 18.936 173.101 19.2 173.773 19.728C174.469 20.232 174.817 21.12 174.817 22.392C174.817 23.64 174.469 24.528 173.773 25.056C173.101 25.584 171.949 25.848 170.317 25.848ZM174.457 27V45H166.177V27H174.457ZM177.252 45V27H184.704L184.884 30.924C185.412 29.556 186.204 28.5 187.26 27.756C188.316 27.012 189.612 26.64 191.148 26.64C192.924 26.64 194.304 27.168 195.288 28.224C196.296 29.28 196.8 30.768 196.8 32.688V45H188.52V34.74C188.52 33.972 188.412 33.456 188.196 33.192C187.98 32.904 187.656 32.76 187.224 32.76C186.624 32.76 186.192 32.976 185.928 33.408C185.664 33.816 185.532 34.512 185.532 35.496V45H177.252ZM205.948 45.36C203.74 45.36 202.036 44.556 200.836 42.948C199.66 41.316 199.072 39.036 199.072 36.108C199.072 33.108 199.672 30.78 200.872 29.124C202.096 27.468 203.8 26.64 205.984 26.64C207.232 26.64 208.276 26.952 209.116 27.576C209.956 28.176 210.604 28.98 211.06 29.988V19.8H219.34V45H211.888L211.636 41.436C211.132 42.612 210.4 43.56 209.44 44.28C208.48 45 207.316 45.36 205.948 45.36ZM209.296 39.564C209.848 39.564 210.28 39.288 210.592 38.736C210.904 38.16 211.06 37.248 211.06 36C211.06 33.648 210.472 32.472 209.296 32.472C208.72 32.472 208.264 32.712 207.928 33.192C207.592 33.648 207.424 34.584 207.424 36C207.424 37.416 207.592 38.364 207.928 38.844C208.264 39.324 208.72 39.564 209.296 39.564ZM230.426 45.36C228.674 45.36 226.982 45.12 225.35 44.64C223.742 44.16 222.338 43.44 221.138 42.48L224.09 38.196C224.738 38.772 225.59 39.288 226.646 39.744C227.702 40.176 228.758 40.392 229.814 40.392C230.222 40.392 230.582 40.344 230.894 40.248C231.23 40.152 231.398 39.984 231.398 39.744C231.398 39.552 231.302 39.408 231.11 39.312C230.942 39.216 230.558 39.12 229.958 39.024L228.662 38.772C226.046 38.268 224.198 37.548 223.118 36.612C222.038 35.676 221.498 34.416 221.498 32.832C221.498 31.848 221.81 30.888 222.434 29.952C223.082 28.992 224.102 28.2 225.494 27.576C226.886 26.952 228.722 26.64 231.002 26.64C232.874 26.64 234.554 26.88 236.042 27.36C237.53 27.816 238.742 28.452 239.678 29.268L236.834 33.372C236.162 32.844 235.298 32.424 234.242 32.112C233.21 31.776 232.262 31.608 231.398 31.608C230.798 31.608 230.378 31.668 230.138 31.788C229.898 31.884 229.778 32.016 229.778 32.184C229.778 32.352 229.898 32.508 230.138 32.652C230.378 32.796 230.846 32.928 231.542 33.048L234.098 33.48C236.042 33.792 237.458 34.416 238.346 35.352C239.258 36.288 239.714 37.44 239.714 38.808C239.714 39.984 239.39 41.076 238.742 42.084C238.118 43.068 237.122 43.86 235.754 44.46C234.41 45.06 232.634 45.36 230.426 45.36Z" fill="black"/>
<path d="M141.717 44.6667L141.493 44.4433L144.397 41.54L141.27 38.4133L138.367 41.3167L136.133 39.0833C136.133 38.6367 136.133 37.9667 136.133 37.52L128.317 7.37C127.87 5.13666 125.86 3.79666 123.627 4.02L102.41 5.13666C100.177 5.36 98.39 7.14666 98.1666 9.38L96.8266 30.82C96.6033 33.0533 98.1666 35.0633 100.177 35.51L130.55 43.1033C130.773 43.1033 130.997 43.1033 131.443 43.1033C131.89 43.1033 132.56 42.88 133.007 42.88L134.793 44.6667L131.89 47.57L135.017 50.6967L137.92 47.7933L138.143 48.0167C140.153 50.0267 140.153 52.93 138.143 54.94C136.133 56.95 133.23 56.95 131.22 54.94C126.307 50.0267 118.49 50.0267 113.577 54.94L109.557 58.96C108.663 59.8533 108.663 61.1933 109.557 62.0867C110.003 62.5333 110.673 62.7567 111.12 62.7567C111.567 62.7567 112.237 62.5333 112.683 62.0867L116.703 58.0667C119.83 54.94 124.967 54.94 128.093 58.0667C131.667 61.64 137.697 61.64 141.27 58.0667C144.843 54.4933 145.29 48.4633 141.717 44.6667ZM131.667 38.6367L112.46 19.43L101.517 30.3733L102.633 9.60333L112.237 19.2067L123.85 7.59333L131.667 38.6367Z" fill="#FFDE32"/>
<path d="M10.188 21.24V29.988H16.704V21.24H25.092V45H16.704V36.144H10.188V45H1.8V21.24H10.188ZM38.0545 33.768C38.0545 32.592 37.5385 32.004 36.5065 32.004C36.0025 32.004 35.5825 32.148 35.2465 32.436C34.9105 32.724 34.7185 33.3 34.6705 34.164L27.6865 33.156C27.8545 31.164 28.7185 29.58 30.2785 28.404C31.8385 27.228 34.1065 26.64 37.0825 26.64C40.2025 26.64 42.5065 27.276 43.9945 28.548C45.5065 29.796 46.2625 31.452 46.2625 33.516V39.096C46.2625 40.08 46.7305 40.572 47.6665 40.572C47.9305 40.572 48.1345 40.536 48.2785 40.464L47.9185 44.712C47.0305 45.144 45.9625 45.36 44.7145 45.36C43.3225 45.36 42.1345 45.12 41.1505 44.64C40.1665 44.16 39.5065 43.428 39.1705 42.444C38.6905 43.308 37.9345 44.016 36.9025 44.568C35.8705 45.096 34.6945 45.36 33.3745 45.36C31.4785 45.36 30.0145 44.94 28.9825 44.1C27.9745 43.236 27.4705 42.06 27.4705 40.572C27.4705 39.252 27.8905 38.184 28.7305 37.368C29.5705 36.528 30.7825 35.952 32.3665 35.64L38.0545 34.452V33.768ZM35.2465 39.348C35.2465 39.732 35.3665 40.044 35.6065 40.284C35.8465 40.524 36.1825 40.644 36.6145 40.644C37.0225 40.644 37.3585 40.5 37.6225 40.212C37.9105 39.924 38.0545 39.516 38.0545 38.988V37.404L36.6505 37.728C35.7145 37.968 35.2465 38.508 35.2465 39.348ZM49.4626 52.56V27H56.9866L57.1666 30.6C57.6706 29.4 58.4026 28.44 59.3626 27.72C60.3226 27 61.4866 26.64 62.8546 26.64C65.0626 26.64 66.7546 27.456 67.9306 29.088C69.1306 30.696 69.7306 32.964 69.7306 35.892C69.7306 38.892 69.1306 41.22 67.9306 42.876C66.7306 44.532 65.0266 45.36 62.8186 45.36C61.5706 45.36 60.5266 45.06 59.6866 44.46C58.8466 43.836 58.1986 43.02 57.7426 42.012V52.56H49.4626ZM59.5066 39.528C60.0826 39.528 60.5386 39.3 60.8746 38.844C61.2106 38.364 61.3786 37.416 61.3786 36C61.3786 34.584 61.2106 33.636 60.8746 33.156C60.5386 32.676 60.0826 32.436 59.5066 32.436C58.9546 32.436 58.5226 32.724 58.2106 33.3C57.8986 33.852 57.7426 34.752 57.7426 36C57.7426 38.352 58.3306 39.528 59.5066 39.528ZM72.0329 52.56V27H79.5569L79.7369 30.6C80.2409 29.4 80.9729 28.44 81.9329 27.72C82.8929 27 84.0569 26.64 85.4249 26.64C87.6329 26.64 89.3249 27.456 90.5009 29.088C91.7009 30.696 92.3009 32.964 92.3009 35.892C92.3009 38.892 91.7009 41.22 90.5009 42.876C89.3009 44.532 87.5969 45.36 85.3889 45.36C84.1409 45.36 83.0969 45.06 82.2569 44.46C81.4169 43.836 80.7689 43.02 80.3129 42.012V52.56H72.0329ZM82.0769 39.528C82.6529 39.528 83.1089 39.3 83.4449 38.844C83.7809 38.364 83.9489 37.416 83.9489 36C83.9489 34.584 83.7809 33.636 83.4449 33.156C83.1089 32.676 82.6529 32.436 82.0769 32.436C81.5249 32.436 81.0929 32.724 80.7809 33.3C80.4689 33.852 80.3129 34.752 80.3129 36C80.3129 38.352 80.9009 39.528 82.0769 39.528ZM113.642 27L108.35 42.984C107.558 45.36 106.67 47.256 105.686 48.672C104.726 50.112 103.562 51.144 102.194 51.768C100.85 52.416 99.2064 52.74 97.2624 52.74C96.1104 52.74 95.0664 52.632 94.1304 52.416C93.1944 52.2 92.3904 51.912 91.7184 51.552L93.2304 46.332C93.6144 46.548 94.0224 46.704 94.4544 46.8C94.9104 46.896 95.5704 46.944 96.4344 46.944C97.2024 46.944 97.7664 46.872 98.1264 46.728C98.5104 46.584 98.7744 46.332 98.9184 45.972L99.0264 45.684L96.7584 40.392L91.6104 27H100.646L102.266 36.288L102.95 40.5L103.742 36.252L105.542 27H113.642Z" fill="black"/>
</svg>
