<?xml version="1.0" encoding="utf-8"?>
<!-- Generator: Adobe Illustrator 24.1.0, SVG Export Plug-In . SVG Version: 6.00 Build 0)  -->
<svg version="1.1" id="Capa_1" xmlns="http://www.w3.org/2000/svg" xmlns:xlink="http://www.w3.org/1999/xlink" x="0px" y="0px"
	 viewBox="0 0 75.9 75.9" style="enable-background:new 0 0 75.9 75.9;" xml:space="preserve">
<style type="text/css">
	.st0{fill:none;stroke:#000000;stroke-width:4;stroke-miterlimit:10;}
</style>
<path class="st0" d="M18.6,32.3c0.6,0.1,1.3-0.6,1.3-1.2l-0.3-6.6c0-3-0.1-6.1,1-8.8c2.2-5.5,6.7-8.2,8.3-8.9c1.5-0.7,3.1-1.2,5-1.5
	C35.9,5,36.6,5,38.6,5c2.3,0,5.6,0.5,8.5,1.9c4.4,2.1,6.6,5.9,7.7,7.5c0.7,1,1.2,2.9,1.3,3.6c0.1,0.7,0.3,4.5,0.3,4.5l0,4.3
	c0,0.3-0.1,2.5-0.1,2.5l-0.1,2c0,0.4,0.3,0.8,0.7,0.8c1,0.2,2.4,0,2.4,0c3.5-1.2,4.1-1,5.3,0c0.3,0.2,0.5,0.6,0.6,0.9
	c0.4,1.5-1.3,2.3-3,3.1c-1.9,0.6-3.3,1-4.4,1.8c-1.8,1-1.1,3.7-0.3,4.8c0.9,1.9,4.5,7.5,8.8,9.7c0.7,0.4,2.1,1,3.5,1.4
	c1.5,0.4,2.9,0.6,2.6,1.2c-1.4,3-5.3,3.1-8.5,3.8c-0.4,0.1-0.8,0.4-1,0.8c-0.4,0.9-0.4,2.1-0.9,3.2c-0.1,0.3-0.4,0.5-0.7,0.4
	c-3.1-0.2-6.7-1-9.4,0.1c-3.5,1.4-6.3,4.4-8.9,5.1c-3.4,1.3-6.8,1.1-10.1,0c-3.9-1.9-6.3-4.1-8.3-5.1c-0.3-0.2-0.7-0.3-1.1-0.4
	c-3.1-0.3-5.1-0.3-8.2,0.5c-0.7,0-1.3-0.4-1.5-1c-0.2-0.8-0.2-1.8-0.4-2.6c-0.2-0.5-0.6-0.9-1.1-1c-3-0.6-5.5-0.9-8.1-2.7
	c-0.6-0.6-0.4-1.8,0.5-2C6,54.1,6.4,54,8,53.5c5.4-2.2,11.7-10.3,11.3-13.7c-0.3-1.7-1.6-2.5-3.7-3c-2.8-1.1-3.5-1.1-4.5-2.3
	c-0.3-0.3-0.5-0.8-0.3-1.4c0.1-0.3,0.2-0.5,0.4-0.8c0.3-0.6,1.2-1,1.9-1.1C14.6,31,15.9,32.5,18.6,32.3z"/>
</svg>
