<?xml version="1.0" encoding="utf-8"?>
<!-- Generator: Adobe Illustrator 24.1.0, SVG Export Plug-In . SVG Version: 6.00 Build 0)  -->
<svg version="1.1" id="Capa_1" xmlns="http://www.w3.org/2000/svg" xmlns:xlink="http://www.w3.org/1999/xlink" x="0px" y="0px"
	 viewBox="0 0 241 67" style="enable-background:new 0 0 241 67;" xml:space="preserve">
<style type="text/css">
	.st0{fill:#2176AE;}
</style>
<path d="M134.4,45l-6.7-23.8h9l2.8,17.2l3.3-17.2h7.2l3.5,17.1l2.7-17.1h8.7L158.2,45h-8.9l-1.9-8.9l-0.9-6.1h-0.1l-0.9,6.1
	l-1.8,8.9H134.4z M170.3,25.8c-1.6,0-2.8-0.3-3.5-0.8c-0.7-0.5-1-1.4-1-2.7c0-1.3,0.3-2.2,1-2.7c0.7-0.5,1.9-0.8,3.5-0.8
	s2.8,0.3,3.5,0.8c0.7,0.5,1,1.4,1,2.7c0,1.2-0.3,2.1-1,2.7C173.1,25.6,171.9,25.8,170.3,25.8z M174.5,27v18h-8.3V27H174.5z
	 M177.3,45V27h7.5l0.2,3.9c0.5-1.4,1.3-2.4,2.4-3.2c1.1-0.7,2.4-1.1,3.9-1.1c1.8,0,3.2,0.5,4.1,1.6c1,1.1,1.5,2.5,1.5,4.5V45h-8.3
	V34.7c0-0.8-0.1-1.3-0.3-1.5c-0.2-0.3-0.5-0.4-1-0.4c-0.6,0-1,0.2-1.3,0.6c-0.3,0.4-0.4,1.1-0.4,2.1V45H177.3z M205.9,45.4
	c-2.2,0-3.9-0.8-5.1-2.4c-1.2-1.6-1.8-3.9-1.8-6.8c0-3,0.6-5.3,1.8-7c1.2-1.7,2.9-2.5,5.1-2.5c1.2,0,2.3,0.3,3.1,0.9
	c0.8,0.6,1.5,1.4,1.9,2.4V19.8h8.3V45h-7.5l-0.3-3.6c-0.5,1.2-1.2,2.1-2.2,2.8C208.5,45,207.3,45.4,205.9,45.4z M209.3,39.6
	c0.6,0,1-0.3,1.3-0.8c0.3-0.6,0.5-1.5,0.5-2.7c0-2.4-0.6-3.5-1.8-3.5c-0.6,0-1,0.2-1.4,0.7c-0.3,0.5-0.5,1.4-0.5,2.8
	s0.2,2.4,0.5,2.8C208.3,39.3,208.7,39.6,209.3,39.6z M230.4,45.4c-1.8,0-3.4-0.2-5.1-0.7c-1.6-0.5-3-1.2-4.2-2.2l3-4.3
	c0.6,0.6,1.5,1.1,2.6,1.5c1.1,0.4,2.1,0.6,3.2,0.6c0.4,0,0.8,0,1.1-0.1c0.3-0.1,0.5-0.3,0.5-0.5c0-0.2-0.1-0.3-0.3-0.4
	c-0.2-0.1-0.6-0.2-1.2-0.3l-1.3-0.3c-2.6-0.5-4.5-1.2-5.5-2.2s-1.6-2.2-1.6-3.8c0-1,0.3-1.9,0.9-2.9c0.6-1,1.7-1.8,3.1-2.4
	s3.2-0.9,5.5-0.9c1.9,0,3.6,0.2,5,0.7c1.5,0.5,2.7,1.1,3.6,1.9l-2.8,4.1c-0.7-0.5-1.5-0.9-2.6-1.3c-1-0.3-2-0.5-2.8-0.5
	c-0.6,0-1,0.1-1.3,0.2c-0.2,0.1-0.4,0.2-0.4,0.4c0,0.2,0.1,0.3,0.4,0.5s0.7,0.3,1.4,0.4l2.6,0.4c1.9,0.3,3.4,0.9,4.2,1.9
	c0.9,0.9,1.4,2.1,1.4,3.5c0,1.2-0.3,2.3-1,3.3c-0.6,1-1.6,1.8-3,2.4C234.4,45.1,232.6,45.4,230.4,45.4z"/>
<path class="st0" d="M141.7,44.7l-0.2-0.2l2.9-2.9l-3.1-3.1l-2.9,2.9l-2.2-2.2c0-0.4,0-1.1,0-1.6l-7.8-30.2
	c-0.4-2.2-2.5-3.6-4.7-3.3l-21.2,1.1c-2.2,0.2-4,2-4.2,4.2l-1.3,21.4c-0.2,2.2,1.3,4.2,3.4,4.7l30.4,7.6c0.2,0,0.4,0,0.9,0
	c0.4,0,1.1-0.2,1.6-0.2l1.8,1.8l-2.9,2.9l3.1,3.1l2.9-2.9l0.2,0.2c2,2,2,4.9,0,6.9c-2,2-4.9,2-6.9,0c-4.9-4.9-12.7-4.9-17.6,0l-4,4
	c-0.9,0.9-0.9,2.2,0,3.1c0.4,0.4,1.1,0.7,1.6,0.7c0.4,0,1.1-0.2,1.6-0.7l4-4c3.1-3.1,8.3-3.1,11.4,0c3.6,3.6,9.6,3.6,13.2,0
	C144.8,54.5,145.3,48.5,141.7,44.7z M131.7,38.6l-19.2-19.2l-10.9,10.9l1.1-20.8l9.6,9.6l11.6-11.6L131.7,38.6z"/>
<path d="M10.2,21.2V30h6.5v-8.7h8.4V45h-8.4v-8.9h-6.5V45H1.8V21.2H10.2z M38.1,33.8c0-1.2-0.5-1.8-1.5-1.8c-0.5,0-0.9,0.1-1.3,0.4
	c-0.3,0.3-0.5,0.9-0.6,1.7l-7-1c0.2-2,1-3.6,2.6-4.8c1.6-1.2,3.8-1.8,6.8-1.8c3.1,0,5.4,0.6,6.9,1.9c1.5,1.2,2.3,2.9,2.3,5v5.6
	c0,1,0.5,1.5,1.4,1.5c0.3,0,0.5,0,0.6-0.1l-0.4,4.2c-0.9,0.4-2,0.6-3.2,0.6c-1.4,0-2.6-0.2-3.6-0.7c-1-0.5-1.6-1.2-2-2.2
	c-0.5,0.9-1.2,1.6-2.3,2.1c-1,0.5-2.2,0.8-3.5,0.8c-1.9,0-3.4-0.4-4.4-1.3c-1-0.9-1.5-2-1.5-3.5c0-1.3,0.4-2.4,1.3-3.2
	c0.8-0.8,2.1-1.4,3.6-1.7l5.7-1.2V33.8z M35.2,39.3c0,0.4,0.1,0.7,0.4,0.9c0.2,0.2,0.6,0.4,1,0.4c0.4,0,0.7-0.1,1-0.4
	c0.3-0.3,0.4-0.7,0.4-1.2v-1.6l-1.4,0.3C35.7,38,35.2,38.5,35.2,39.3z M49.5,52.6V27H57l0.2,3.6c0.5-1.2,1.2-2.2,2.2-2.9
	c1-0.7,2.1-1.1,3.5-1.1c2.2,0,3.9,0.8,5.1,2.4c1.2,1.6,1.8,3.9,1.8,6.8c0,3-0.6,5.3-1.8,7c-1.2,1.7-2.9,2.5-5.1,2.5
	c-1.2,0-2.3-0.3-3.1-0.9c-0.8-0.6-1.5-1.4-1.9-2.4v10.5H49.5z M59.5,39.5c0.6,0,1-0.2,1.4-0.7c0.3-0.5,0.5-1.4,0.5-2.8
	s-0.2-2.4-0.5-2.8c-0.3-0.5-0.8-0.7-1.4-0.7c-0.6,0-1,0.3-1.3,0.9c-0.3,0.6-0.5,1.5-0.5,2.7C57.7,38.4,58.3,39.5,59.5,39.5z
	 M72,52.6V27h7.5l0.2,3.6c0.5-1.2,1.2-2.2,2.2-2.9c1-0.7,2.1-1.1,3.5-1.1c2.2,0,3.9,0.8,5.1,2.4c1.2,1.6,1.8,3.9,1.8,6.8
	c0,3-0.6,5.3-1.8,7c-1.2,1.7-2.9,2.5-5.1,2.5c-1.2,0-2.3-0.3-3.1-0.9c-0.8-0.6-1.5-1.4-1.9-2.4v10.5H72z M82.1,39.5
	c0.6,0,1-0.2,1.4-0.7c0.3-0.5,0.5-1.4,0.5-2.8s-0.2-2.4-0.5-2.8c-0.3-0.5-0.8-0.7-1.4-0.7c-0.6,0-1,0.3-1.3,0.9
	c-0.3,0.6-0.5,1.5-0.5,2.7C80.3,38.4,80.9,39.5,82.1,39.5z M113.6,27l-5.3,16c-0.8,2.4-1.7,4.3-2.7,5.7c-1,1.4-2.1,2.5-3.5,3.1
	c-1.3,0.6-3,1-4.9,1c-1.2,0-2.2-0.1-3.1-0.3c-0.9-0.2-1.7-0.5-2.4-0.9l1.5-5.2c0.4,0.2,0.8,0.4,1.2,0.5c0.5,0.1,1.1,0.1,2,0.1
	c0.8,0,1.3-0.1,1.7-0.2c0.4-0.1,0.6-0.4,0.8-0.8l0.1-0.3l-2.3-5.3L91.6,27h9l1.6,9.3l0.7,4.2l0.8-4.2l1.8-9.3H113.6z"/>
</svg>
