<svg width="742" height="261" viewBox="0 0 742 261" fill="none" xmlns="http://www.w3.org/2000/svg">
<path d="M123.795 257V208.742H0.469001V154.739C4.04367 148.1 8.895 139.93 15.023 130.227C21.4063 120.269 28.811 108.907 37.237 96.14L97.368 4.21999H200.395V150.909H234.482V208.742H200.395V257H123.795ZM66.345 150.909H124.944V86.182C124.944 82.352 124.944 78.139 124.944 73.543C125.199 68.947 125.455 64.2233 125.71 59.372H124.944C122.646 63.7127 120.22 68.0533 117.667 72.394C115.369 76.7347 112.943 80.82 110.39 84.65L79.75 131.759C77.7073 135.078 75.537 138.27 73.239 141.334C71.1963 144.398 68.8983 147.59 66.345 150.909ZM366.587 260.83C328.287 260.83 299.945 249.978 281.561 228.275C263.432 206.572 254.368 174.017 254.368 130.61C254.368 87.2033 263.432 54.6483 281.561 32.945C299.945 11.2417 328.287 0.389994 366.587 0.389994C404.887 0.389994 433.101 11.2417 451.23 32.945C469.614 54.6483 478.806 87.2033 478.806 130.61C478.806 174.017 469.614 206.572 451.23 228.275C433.101 249.978 404.887 260.83 366.587 260.83ZM366.587 193.805C373.226 193.805 378.332 192.018 381.907 188.443C385.482 184.868 387.907 178.485 389.184 169.293C390.716 160.101 391.482 147.207 391.482 130.61C391.482 114.013 390.716 101.119 389.184 91.927C387.907 82.735 385.482 76.3517 381.907 72.777C378.332 69.2023 373.226 67.415 366.587 67.415C360.204 67.415 355.097 69.2023 351.267 72.777C347.692 76.3517 345.139 82.735 343.607 91.927C342.33 101.119 341.692 114.013 341.692 130.61C341.692 147.207 342.33 160.101 343.607 169.293C345.139 178.485 347.692 184.868 351.267 188.443C355.097 192.018 360.204 193.805 366.587 193.805ZM632.467 257V208.742H509.141V154.739C512.716 148.1 517.567 139.93 523.695 130.227C530.078 120.269 537.483 108.907 545.909 96.14L606.04 4.21999H709.067V150.909H743.154V208.742H709.067V257H632.467ZM575.017 150.909H633.616V86.182C633.616 82.352 633.616 78.139 633.616 73.543C633.871 68.947 634.127 64.2233 634.382 59.372H633.616C631.318 63.7127 628.892 68.0533 626.339 72.394C624.041 76.7347 621.615 80.82 619.062 84.65L588.422 131.759C586.379 135.078 584.209 138.27 581.911 141.334C579.868 144.398 577.57 147.59 575.017 150.909Z" fill="#ED6A5A"/>
</svg>
